# Wavefront OBJ file automatically generated by Tiled2Unity

# Vertices (Count = 341)
v 0 -32 0
v -32 -32 0
v -32 0 0
v 0 0 0
v -64 -32 0
v -64 0 0
v -96 -32 0
v -96 0 0
v -128 -32 0
v -128 0 0
v -160 -32 0
v -160 0 0
v -192 -32 0
v -192 0 0
v -224 -32 0
v -224 0 0
v -256 -32 0
v -256 0 0
v -288 -32 0
v -288 0 0
v -320 -32 0
v -320 0 0
v -352 -32 0
v -352 0 0
v -384 -32 0
v -384 0 0
v -416 -32 0
v -416 0 0
v -448 -32 0
v -448 0 0
v -480 -32 0
v -480 0 0
v -512 -32 0
v -512 0 0
v -544 -32 0
v -544 0 0
v -576 -32 0
v -576 0 0
v -608 -32 0
v -608 0 0
v -640 -32 0
v -640 0 0
v -672 -32 0
v -672 0 0
v -704 -32 0
v -704 0 0
v -736 -32 0
v -736 0 0
v -768 -32 0
v -768 0 0
v -800 -32 0
v -800 0 0
v -832 -32 0
v -832 0 0
v -864 -32 0
v -864 0 0
v -896 -32 0
v -896 0 0
v -928 -32 0
v -928 0 0
v -960 -32 0
v -960 0 0
v 0 -64 0
v -32 -64 0
v -64 -64 0
v -96 -64 0
v -128 -64 0
v -160 -64 0
v -192 -64 0
v -224 -64 0
v -256 -64 0
v -288 -64 0
v -320 -64 0
v -352 -64 0
v -384 -64 0
v -416 -64 0
v -448 -64 0
v -480 -64 0
v -512 -64 0
v -544 -64 0
v -576 -64 0
v -608 -64 0
v -640 -64 0
v -672 -64 0
v -704 -64 0
v -736 -64 0
v -768 -64 0
v -800 -64 0
v -832 -64 0
v -864 -64 0
v -896 -64 0
v -928 -64 0
v -960 -64 0
v 0 -96 0
v -32 -96 0
v -64 -96 0
v -96 -96 0
v -128 -96 0
v -160 -96 0
v -192 -96 0
v -224 -96 0
v -256 -96 0
v -288 -96 0
v -320 -96 0
v -352 -96 0
v -384 -96 0
v -416 -96 0
v -448 -96 0
v -480 -96 0
v -512 -96 0
v -544 -96 0
v -576 -96 0
v -608 -96 0
v -640 -96 0
v -672 -96 0
v -704 -96 0
v -736 -96 0
v -768 -96 0
v -800 -96 0
v -832 -96 0
v -864 -96 0
v -896 -96 0
v -928 -96 0
v -960 -96 0
v 0 -128 0
v -32 -128 0
v -64 -128 0
v -96 -128 0
v -128 -128 0
v -160 -128 0
v -192 -128 0
v -224 -128 0
v -256 -128 0
v -288 -128 0
v -320 -128 0
v -352 -128 0
v -384 -128 0
v -416 -128 0
v -448 -128 0
v -480 -128 0
v -512 -128 0
v -544 -128 0
v -576 -128 0
v -608 -128 0
v -640 -128 0
v -672 -128 0
v -704 -128 0
v -736 -128 0
v -768 -128 0
v -800 -128 0
v -832 -128 0
v -864 -128 0
v -896 -128 0
v -928 -128 0
v -960 -128 0
v 0 -160 0
v -32 -160 0
v -64 -160 0
v -96 -160 0
v -128 -160 0
v -160 -160 0
v -192 -160 0
v -224 -160 0
v -256 -160 0
v -288 -160 0
v -320 -160 0
v -352 -160 0
v -384 -160 0
v -416 -160 0
v -448 -160 0
v -480 -160 0
v -512 -160 0
v -544 -160 0
v -576 -160 0
v -608 -160 0
v -640 -160 0
v -672 -160 0
v -704 -160 0
v -736 -160 0
v -768 -160 0
v -800 -160 0
v -832 -160 0
v -864 -160 0
v -896 -160 0
v -928 -160 0
v -960 -160 0
v 0 -192 0
v -32 -192 0
v -64 -192 0
v -96 -192 0
v -128 -192 0
v -160 -192 0
v -192 -192 0
v -224 -192 0
v -256 -192 0
v -288 -192 0
v -320 -192 0
v -352 -192 0
v -384 -192 0
v -416 -192 0
v -448 -192 0
v -480 -192 0
v -512 -192 0
v -544 -192 0
v -576 -192 0
v -608 -192 0
v -640 -192 0
v -672 -192 0
v -704 -192 0
v -736 -192 0
v -768 -192 0
v -800 -192 0
v -832 -192 0
v -864 -192 0
v -896 -192 0
v -928 -192 0
v -960 -192 0
v 0 -224 0
v -32 -224 0
v -64 -224 0
v -96 -224 0
v -128 -224 0
v -160 -224 0
v -192 -224 0
v -224 -224 0
v -256 -224 0
v -288 -224 0
v -320 -224 0
v -352 -224 0
v -384 -224 0
v -416 -224 0
v -448 -224 0
v -480 -224 0
v -512 -224 0
v -544 -224 0
v -576 -224 0
v -608 -224 0
v -640 -224 0
v -672 -224 0
v -704 -224 0
v -736 -224 0
v -768 -224 0
v -800 -224 0
v -832 -224 0
v -864 -224 0
v -896 -224 0
v -928 -224 0
v -960 -224 0
v 0 -256 0
v -32 -256 0
v -64 -256 0
v -96 -256 0
v -128 -256 0
v -160 -256 0
v -192 -256 0
v -224 -256 0
v -256 -256 0
v -288 -256 0
v -320 -256 0
v -352 -256 0
v -384 -256 0
v -416 -256 0
v -448 -256 0
v -480 -256 0
v -512 -256 0
v -544 -256 0
v -576 -256 0
v -608 -256 0
v -640 -256 0
v -672 -256 0
v -704 -256 0
v -736 -256 0
v -768 -256 0
v -800 -256 0
v -832 -256 0
v -864 -256 0
v -896 -256 0
v -928 -256 0
v -960 -256 0
v 0 -288 0
v -32 -288 0
v -64 -288 0
v -96 -288 0
v -128 -288 0
v -160 -288 0
v -192 -288 0
v -224 -288 0
v -256 -288 0
v -288 -288 0
v -320 -288 0
v -352 -288 0
v -384 -288 0
v -416 -288 0
v -448 -288 0
v -480 -288 0
v -512 -288 0
v -544 -288 0
v -576 -288 0
v -608 -288 0
v -640 -288 0
v -672 -288 0
v -704 -288 0
v -736 -288 0
v -768 -288 0
v -800 -288 0
v -832 -288 0
v -864 -288 0
v -896 -288 0
v -928 -288 0
v -960 -288 0
v 0 -320 0
v -32 -320 0
v -64 -320 0
v -96 -320 0
v -128 -320 0
v -160 -320 0
v -192 -320 0
v -224 -320 0
v -256 -320 0
v -288 -320 0
v -320 -320 0
v -352 -320 0
v -384 -320 0
v -416 -320 0
v -448 -320 0
v -480 -320 0
v -512 -320 0
v -544 -320 0
v -576 -320 0
v -608 -320 0
v -640 -320 0
v -672 -320 0
v -704 -320 0
v -736 -320 0
v -768 -320 0
v -800 -320 0
v -832 -320 0
v -864 -320 0
v -896 -320 0
v -928 -320 0
v -960 -320 0

# Texture cooridinates (Count = 24)
vt 0.1875076 0.9272739
vt 0.2499924 0.9272739
vt 0.2499924 0.9363625
vt 0.1875076 0.9363625
vt 0.2500076 0.9636375
vt 0.3124924 0.9636375
vt 0.3124924 0.9727262
vt 0.2500076 0.9727262
vt 7.629395E-06 0.9727284
vt 0.06249237 0.9727284
vt 0.06249237 0.9818171
vt 7.629395E-06 0.9818171
vt 7.629395E-06 0.609092
vt 0.06249237 0.609092
vt 0.06249237 0.6181808
vt 7.629395E-06 0.6181808
vt 7.629395E-06 0.5181829
vt 0.06249237 0.5181829
vt 0.06249237 0.5272716
vt 7.629395E-06 0.5272716
vt 7.629395E-06 0.2454557
vt 0.06249237 0.2454557
vt 0.06249237 0.2545443
vt 7.629395E-06 0.2545443

# Normal
vn 0 0 -1

# Groups (Count = 5)

g mesh_0001
f 1/1/1 2/2/1 3/3/1 4/4/1
f 2/5/1 5/6/1 6/7/1 3/8/1
f 5/5/1 7/6/1 8/7/1 6/8/1
f 7/5/1 9/6/1 10/7/1 8/8/1
f 9/5/1 11/6/1 12/7/1 10/8/1
f 11/5/1 13/6/1 14/7/1 12/8/1
f 13/5/1 15/6/1 16/7/1 14/8/1
f 15/5/1 17/6/1 18/7/1 16/8/1
f 17/5/1 19/6/1 20/7/1 18/8/1
f 19/5/1 21/6/1 22/7/1 20/8/1
f 21/5/1 23/6/1 24/7/1 22/8/1
f 23/5/1 25/6/1 26/7/1 24/8/1
f 25/5/1 27/6/1 28/7/1 26/8/1
f 27/5/1 29/6/1 30/7/1 28/8/1
f 29/5/1 31/6/1 32/7/1 30/8/1
f 31/5/1 33/6/1 34/7/1 32/8/1
f 33/5/1 35/6/1 36/7/1 34/8/1
f 35/5/1 37/6/1 38/7/1 36/8/1
f 37/5/1 39/6/1 40/7/1 38/8/1
f 39/5/1 41/6/1 42/7/1 40/8/1
f 41/5/1 43/6/1 44/7/1 42/8/1
f 43/5/1 45/6/1 46/7/1 44/8/1
f 45/5/1 47/6/1 48/7/1 46/8/1
f 47/5/1 49/6/1 50/7/1 48/8/1
f 49/5/1 51/6/1 52/7/1 50/8/1
f 51/5/1 53/6/1 54/7/1 52/8/1
f 53/5/1 55/6/1 56/7/1 54/8/1
f 55/5/1 57/6/1 58/7/1 56/8/1
f 57/5/1 59/6/1 60/7/1 58/8/1
f 59/5/1 61/6/1 62/7/1 60/8/1
f 63/1/1 64/2/1 2/3/1 1/4/1
f 64/5/1 65/6/1 5/7/1 2/8/1
f 65/5/1 66/6/1 7/7/1 5/8/1
f 66/5/1 67/6/1 9/7/1 7/8/1
f 67/5/1 68/6/1 11/7/1 9/8/1
f 68/5/1 69/6/1 13/7/1 11/8/1
f 69/5/1 70/6/1 15/7/1 13/8/1
f 70/5/1 71/6/1 17/7/1 15/8/1
f 71/5/1 72/6/1 19/7/1 17/8/1
f 72/5/1 73/6/1 21/7/1 19/8/1
f 73/5/1 74/6/1 23/7/1 21/8/1
f 74/5/1 75/6/1 25/7/1 23/8/1
f 75/5/1 76/6/1 27/7/1 25/8/1
f 76/5/1 77/6/1 29/7/1 27/8/1
f 77/5/1 78/6/1 31/7/1 29/8/1
f 78/5/1 79/6/1 33/7/1 31/8/1
f 79/5/1 80/6/1 35/7/1 33/8/1
f 80/5/1 81/6/1 37/7/1 35/8/1
f 81/5/1 82/6/1 39/7/1 37/8/1
f 82/5/1 83/6/1 41/7/1 39/8/1
f 83/5/1 84/6/1 43/7/1 41/8/1
f 84/5/1 85/6/1 45/7/1 43/8/1
f 85/5/1 86/6/1 47/7/1 45/8/1
f 86/5/1 87/6/1 49/7/1 47/8/1
f 87/5/1 88/6/1 51/7/1 49/8/1
f 88/5/1 89/6/1 53/7/1 51/8/1
f 89/5/1 90/6/1 55/7/1 53/8/1
f 90/5/1 91/6/1 57/7/1 55/8/1
f 91/5/1 92/6/1 59/7/1 57/8/1
f 92/5/1 93/6/1 61/7/1 59/8/1
f 94/1/1 95/2/1 64/3/1 63/4/1
f 95/1/1 96/2/1 65/3/1 64/4/1
f 96/5/1 97/6/1 66/7/1 65/8/1
f 97/5/1 98/6/1 67/7/1 66/8/1
f 98/5/1 99/6/1 68/7/1 67/8/1
f 99/5/1 100/6/1 69/7/1 68/8/1
f 100/5/1 101/6/1 70/7/1 69/8/1
f 101/5/1 102/6/1 71/7/1 70/8/1
f 102/5/1 103/6/1 72/7/1 71/8/1
f 103/5/1 104/6/1 73/7/1 72/8/1
f 104/5/1 105/6/1 74/7/1 73/8/1
f 105/5/1 106/6/1 75/7/1 74/8/1
f 106/5/1 107/6/1 76/7/1 75/8/1
f 107/5/1 108/6/1 77/7/1 76/8/1
f 108/5/1 109/6/1 78/7/1 77/8/1
f 109/5/1 110/6/1 79/7/1 78/8/1
f 110/5/1 111/6/1 80/7/1 79/8/1
f 111/5/1 112/6/1 81/7/1 80/8/1
f 112/5/1 113/6/1 82/7/1 81/8/1
f 113/5/1 114/6/1 83/7/1 82/8/1
f 114/5/1 115/6/1 84/7/1 83/8/1
f 115/5/1 116/6/1 85/7/1 84/8/1
f 116/5/1 117/6/1 86/7/1 85/8/1
f 117/5/1 118/6/1 87/7/1 86/8/1
f 118/5/1 119/6/1 88/7/1 87/8/1
f 119/5/1 120/6/1 89/7/1 88/8/1
f 120/5/1 121/6/1 90/7/1 89/8/1
f 121/5/1 122/6/1 91/7/1 90/8/1
f 122/5/1 123/6/1 92/7/1 91/8/1
f 123/5/1 124/6/1 93/7/1 92/8/1
f 125/1/1 126/2/1 95/3/1 94/4/1
f 126/1/1 127/2/1 96/3/1 95/4/1
f 127/5/1 128/6/1 97/7/1 96/8/1
f 128/5/1 129/6/1 98/7/1 97/8/1
f 129/5/1 130/6/1 99/7/1 98/8/1
f 130/5/1 131/6/1 100/7/1 99/8/1
f 131/5/1 132/6/1 101/7/1 100/8/1
f 132/5/1 133/6/1 102/7/1 101/8/1
f 133/5/1 134/6/1 103/7/1 102/8/1
f 134/5/1 135/6/1 104/7/1 103/8/1
f 135/5/1 136/6/1 105/7/1 104/8/1
f 136/5/1 137/6/1 106/7/1 105/8/1
f 137/5/1 138/6/1 107/7/1 106/8/1
f 138/5/1 139/6/1 108/7/1 107/8/1
f 139/5/1 140/6/1 109/7/1 108/8/1
f 140/5/1 141/6/1 110/7/1 109/8/1
f 141/5/1 142/6/1 111/7/1 110/8/1
f 142/5/1 143/6/1 112/7/1 111/8/1
f 143/5/1 144/6/1 113/7/1 112/8/1
f 144/5/1 145/6/1 114/7/1 113/8/1
f 145/5/1 146/6/1 115/7/1 114/8/1
f 146/5/1 147/6/1 116/7/1 115/8/1
f 147/5/1 148/6/1 117/7/1 116/8/1
f 148/5/1 149/6/1 118/7/1 117/8/1
f 149/5/1 150/6/1 119/7/1 118/8/1
f 150/5/1 151/6/1 120/7/1 119/8/1
f 151/5/1 152/6/1 121/7/1 120/8/1
f 152/5/1 153/6/1 122/7/1 121/8/1
f 153/5/1 154/6/1 123/7/1 122/8/1
f 154/5/1 155/6/1 124/7/1 123/8/1
f 156/1/1 157/2/1 126/3/1 125/4/1
f 157/1/1 158/2/1 127/3/1 126/4/1
f 158/1/1 159/2/1 128/3/1 127/4/1
f 159/5/1 160/6/1 129/7/1 128/8/1
f 160/5/1 161/6/1 130/7/1 129/8/1
f 161/5/1 162/6/1 131/7/1 130/8/1
f 162/5/1 163/6/1 132/7/1 131/8/1
f 163/5/1 164/6/1 133/7/1 132/8/1
f 164/5/1 165/6/1 134/7/1 133/8/1
f 165/5/1 166/6/1 135/7/1 134/8/1
f 166/5/1 167/6/1 136/7/1 135/8/1
f 167/5/1 168/6/1 137/7/1 136/8/1
f 168/1/1 169/2/1 138/3/1 137/4/1
f 169/5/1 170/6/1 139/7/1 138/8/1
f 170/5/1 171/6/1 140/7/1 139/8/1
f 171/5/1 172/6/1 141/7/1 140/8/1
f 172/5/1 173/6/1 142/7/1 141/8/1
f 173/5/1 174/6/1 143/7/1 142/8/1
f 174/5/1 175/6/1 144/7/1 143/8/1
f 175/5/1 176/6/1 145/7/1 144/8/1
f 176/5/1 177/6/1 146/7/1 145/8/1
f 177/5/1 178/6/1 147/7/1 146/8/1
f 178/1/1 179/2/1 148/3/1 147/4/1
f 179/1/1 180/2/1 149/3/1 148/4/1
f 180/5/1 181/6/1 150/7/1 149/8/1
f 181/5/1 182/6/1 151/7/1 150/8/1
f 182/5/1 183/6/1 152/7/1 151/8/1
f 183/1/1 184/2/1 153/3/1 152/4/1
f 184/1/1 185/2/1 154/3/1 153/4/1
f 185/1/1 186/2/1 155/3/1 154/4/1
f 187/1/1 188/2/1 157/3/1 156/4/1
f 188/1/1 189/2/1 158/3/1 157/4/1
f 189/1/1 190/2/1 159/3/1 158/4/1
f 190/1/1 191/2/1 160/3/1 159/4/1
f 191/1/1 192/2/1 161/3/1 160/4/1
f 192/1/1 193/2/1 162/3/1 161/4/1
f 193/1/1 194/2/1 163/3/1 162/4/1
f 194/1/1 195/2/1 164/3/1 163/4/1
f 195/1/1 196/2/1 165/3/1 164/4/1
f 196/1/1 197/2/1 166/3/1 165/4/1
f 197/1/1 198/2/1 167/3/1 166/4/1
f 198/5/1 199/6/1 168/7/1 167/8/1
f 199/1/1 200/2/1 169/3/1 168/4/1
f 200/1/1 201/2/1 170/3/1 169/4/1
f 201/1/1 202/2/1 171/3/1 170/4/1
f 202/1/1 203/2/1 172/3/1 171/4/1
f 203/1/1 204/2/1 173/3/1 172/4/1
f 204/5/1 205/6/1 174/7/1 173/8/1
f 205/1/1 206/2/1 175/3/1 174/4/1
f 206/1/1 207/2/1 176/3/1 175/4/1
f 207/1/1 208/2/1 177/3/1 176/4/1
f 208/1/1 209/2/1 178/3/1 177/4/1
f 209/1/1 210/2/1 179/3/1 178/4/1
f 210/1/1 211/2/1 180/3/1 179/4/1
f 211/5/1 212/6/1 181/7/1 180/8/1
f 212/5/1 213/6/1 182/7/1 181/8/1
f 213/5/1 214/6/1 183/7/1 182/8/1
f 214/1/1 215/2/1 184/3/1 183/4/1
f 215/1/1 216/2/1 185/3/1 184/4/1
f 216/1/1 217/2/1 186/3/1 185/4/1
f 218/1/1 219/2/1 188/3/1 187/4/1
f 219/1/1 220/2/1 189/3/1 188/4/1
f 220/1/1 221/2/1 190/3/1 189/4/1
f 221/1/1 222/2/1 191/3/1 190/4/1
f 222/1/1 223/2/1 192/3/1 191/4/1
f 223/1/1 224/2/1 193/3/1 192/4/1
f 224/1/1 225/2/1 194/3/1 193/4/1
f 225/1/1 226/2/1 195/3/1 194/4/1
f 226/1/1 227/2/1 196/3/1 195/4/1
f 227/1/1 228/2/1 197/3/1 196/4/1
f 228/1/1 229/2/1 198/3/1 197/4/1
f 229/1/1 230/2/1 199/3/1 198/4/1
f 230/1/1 231/2/1 200/3/1 199/4/1
f 231/1/1 232/2/1 201/3/1 200/4/1
f 232/1/1 233/2/1 202/3/1 201/4/1
f 233/1/1 234/2/1 203/3/1 202/4/1
f 234/1/1 235/2/1 204/3/1 203/4/1
f 235/1/1 236/2/1 205/3/1 204/4/1
f 236/1/1 237/2/1 206/3/1 205/4/1
f 237/5/1 238/6/1 207/7/1 206/8/1
f 238/1/1 239/2/1 208/3/1 207/4/1
f 239/1/1 240/2/1 209/3/1 208/4/1
f 240/1/1 241/2/1 210/3/1 209/4/1
f 241/1/1 242/2/1 211/3/1 210/4/1
f 242/1/1 243/2/1 212/3/1 211/4/1
f 243/1/1 244/2/1 213/3/1 212/4/1
f 244/1/1 245/2/1 214/3/1 213/4/1
f 245/1/1 246/2/1 215/3/1 214/4/1
f 246/1/1 247/2/1 216/3/1 215/4/1
f 247/1/1 248/2/1 217/3/1 216/4/1
f 249/5/1 250/6/1 219/7/1 218/8/1
f 250/5/1 251/6/1 220/7/1 219/8/1
f 251/5/1 252/6/1 221/7/1 220/8/1
f 252/5/1 253/6/1 222/7/1 221/8/1
f 253/5/1 254/6/1 223/7/1 222/8/1
f 254/5/1 255/6/1 224/7/1 223/8/1
f 255/5/1 256/6/1 225/7/1 224/8/1
f 256/5/1 257/6/1 226/7/1 225/8/1
f 257/5/1 258/6/1 227/7/1 226/8/1
f 258/5/1 259/6/1 228/7/1 227/8/1
f 259/5/1 260/6/1 229/7/1 228/8/1
f 260/5/1 261/6/1 230/7/1 229/8/1
f 261/5/1 262/6/1 231/7/1 230/8/1
f 262/5/1 263/6/1 232/7/1 231/8/1
f 263/5/1 264/6/1 233/7/1 232/8/1
f 264/5/1 265/6/1 234/7/1 233/8/1
f 265/5/1 266/6/1 235/7/1 234/8/1
f 266/1/1 267/2/1 236/3/1 235/4/1
f 267/1/1 268/2/1 237/3/1 236/4/1
f 268/1/1 269/2/1 238/3/1 237/4/1
f 269/1/1 270/2/1 239/3/1 238/4/1
f 270/5/1 271/6/1 240/7/1 239/8/1
f 271/1/1 272/2/1 241/3/1 240/4/1
f 272/5/1 273/6/1 242/7/1 241/8/1
f 273/5/1 274/6/1 243/7/1 242/8/1
f 274/5/1 275/6/1 244/7/1 243/8/1
f 275/5/1 276/6/1 245/7/1 244/8/1
f 276/5/1 277/6/1 246/7/1 245/8/1
f 277/5/1 278/6/1 247/7/1 246/8/1
f 278/1/1 279/2/1 248/3/1 247/4/1
f 280/5/1 281/6/1 250/7/1 249/8/1
f 281/5/1 282/6/1 251/7/1 250/8/1
f 282/5/1 283/6/1 252/7/1 251/8/1
f 283/5/1 284/6/1 253/7/1 252/8/1
f 284/5/1 285/6/1 254/7/1 253/8/1
f 285/5/1 286/6/1 255/7/1 254/8/1
f 286/5/1 287/6/1 256/7/1 255/8/1
f 287/5/1 288/6/1 257/7/1 256/8/1
f 288/5/1 289/6/1 258/7/1 257/8/1
f 289/5/1 290/6/1 259/7/1 258/8/1
f 290/5/1 291/6/1 260/7/1 259/8/1
f 291/5/1 292/6/1 261/7/1 260/8/1
f 292/5/1 293/6/1 262/7/1 261/8/1
f 293/5/1 294/6/1 263/7/1 262/8/1
f 294/5/1 295/6/1 264/7/1 263/8/1
f 295/5/1 296/6/1 265/7/1 264/8/1
f 296/5/1 297/6/1 266/7/1 265/8/1
f 297/5/1 298/6/1 267/7/1 266/8/1
f 298/5/1 299/6/1 268/7/1 267/8/1
f 299/5/1 300/6/1 269/7/1 268/8/1
f 300/5/1 301/6/1 270/7/1 269/8/1
f 301/5/1 302/6/1 271/7/1 270/8/1
f 302/5/1 303/6/1 272/7/1 271/8/1
f 303/5/1 304/6/1 273/7/1 272/8/1
f 304/5/1 305/6/1 274/7/1 273/8/1
f 305/5/1 306/6/1 275/7/1 274/8/1
f 306/5/1 307/6/1 276/7/1 275/8/1
f 307/5/1 308/6/1 277/7/1 276/8/1
f 308/5/1 309/6/1 278/7/1 277/8/1
f 309/5/1 310/6/1 279/7/1 278/8/1
f 311/5/1 312/6/1 281/7/1 280/8/1
f 312/5/1 313/6/1 282/7/1 281/8/1
f 313/5/1 314/6/1 283/7/1 282/8/1
f 314/5/1 315/6/1 284/7/1 283/8/1
f 315/5/1 316/6/1 285/7/1 284/8/1
f 316/5/1 317/6/1 286/7/1 285/8/1
f 317/5/1 318/6/1 287/7/1 286/8/1
f 318/5/1 319/6/1 288/7/1 287/8/1
f 319/5/1 320/6/1 289/7/1 288/8/1
f 320/5/1 321/6/1 290/7/1 289/8/1
f 321/5/1 322/6/1 291/7/1 290/8/1
f 322/5/1 323/6/1 292/7/1 291/8/1
f 323/5/1 324/6/1 293/7/1 292/8/1
f 324/5/1 325/6/1 294/7/1 293/8/1
f 325/5/1 326/6/1 295/7/1 294/8/1
f 326/5/1 327/6/1 296/7/1 295/8/1
f 327/5/1 328/6/1 297/7/1 296/8/1
f 328/5/1 329/6/1 298/7/1 297/8/1
f 329/5/1 330/6/1 299/7/1 298/8/1
f 330/5/1 331/6/1 300/7/1 299/8/1
f 331/5/1 332/6/1 301/7/1 300/8/1
f 332/5/1 333/6/1 302/7/1 301/8/1
f 333/5/1 334/6/1 303/7/1 302/8/1
f 334/5/1 335/6/1 304/7/1 303/8/1
f 335/5/1 336/6/1 305/7/1 304/8/1
f 336/5/1 337/6/1 306/7/1 305/8/1
f 337/5/1 338/6/1 307/7/1 306/8/1
f 338/5/1 339/6/1 308/7/1 307/8/1
f 339/5/1 340/6/1 309/7/1 308/8/1
f 340/5/1 341/6/1 310/7/1 309/8/1

g mesh_0002
f 1/9/1 2/10/1 3/11/1 4/12/1
f 63/9/1 64/10/1 2/11/1 1/12/1
f 94/9/1 95/10/1 64/11/1 63/12/1
f 125/9/1 126/10/1 95/11/1 94/12/1
f 156/9/1 157/10/1 126/11/1 125/12/1
f 187/9/1 188/10/1 157/11/1 156/12/1
f 218/9/1 219/10/1 188/11/1 187/12/1
f 249/9/1 250/10/1 219/11/1 218/12/1
f 250/9/1 251/10/1 220/11/1 219/12/1
f 251/9/1 252/10/1 221/11/1 220/12/1
f 252/9/1 253/10/1 222/11/1 221/12/1
f 253/9/1 254/10/1 223/11/1 222/12/1
f 254/9/1 255/10/1 224/11/1 223/12/1
f 255/9/1 256/10/1 225/11/1 224/12/1
f 256/9/1 257/10/1 226/11/1 225/12/1
f 257/9/1 258/10/1 227/11/1 226/12/1
f 258/9/1 259/10/1 228/11/1 227/12/1
f 259/9/1 260/10/1 229/11/1 228/12/1
f 260/9/1 261/10/1 230/11/1 229/12/1
f 261/9/1 262/10/1 231/11/1 230/12/1
f 262/9/1 263/10/1 232/11/1 231/12/1
f 263/9/1 264/10/1 233/11/1 232/12/1
f 264/9/1 265/10/1 234/11/1 233/12/1
f 268/9/1 269/10/1 238/11/1 237/12/1
f 269/9/1 270/10/1 239/11/1 238/12/1
f 270/9/1 271/10/1 240/11/1 239/12/1
f 271/9/1 272/10/1 241/11/1 240/12/1
f 272/9/1 273/10/1 242/11/1 241/12/1
f 273/9/1 274/10/1 243/11/1 242/12/1
f 274/9/1 275/10/1 244/11/1 243/12/1
f 275/9/1 276/10/1 245/11/1 244/12/1
f 276/9/1 277/10/1 246/11/1 245/12/1
f 277/9/1 278/10/1 247/11/1 246/12/1
f 278/9/1 279/10/1 248/11/1 247/12/1

g mesh_0003
f 196/13/1 197/14/1 166/15/1 165/16/1
f 227/13/1 228/14/1 197/15/1 196/16/1

g mesh_0004
f 201/17/1 202/18/1 171/19/1 170/20/1
f 232/17/1 233/18/1 202/19/1 201/20/1

g mesh_0005
f 96/21/1 97/22/1 66/23/1 65/24/1
f 111/21/1 112/22/1 81/23/1 80/24/1
f 209/21/1 210/22/1 179/23/1 178/24/1
f 240/21/1 241/22/1 210/23/1 209/24/1

